<svg width="1097" height="1221" viewBox="0 0 1097 1221" fill="none" xmlns="http://www.w3.org/2000/svg">
<path d="M283 407V99C283 44.3238 238.676 0 184 0H-25C-79.6762 0 -124 44.3239 -124 99V308C-124 362.676 -79.6761 407 -25 407H283ZM283 407H689.998M283 407V813.998M689.998 407V813.998M689.998 407H998C1052.68 407 1097 362.676 1097 308V99C1097 44.3239 1052.68 0 998 0H788.998C734.322 0 689.998 44.3238 689.998 99V407ZM283 813.998H-25C-79.6761 813.998 -124 858.322 -124 912.998V1122C-124 1176.68 -79.6762 1221 -25 1221H184C238.676 1221 283 1176.68 283 1122V813.998ZM283 813.998H689.998M689.998 813.998V1122C689.998 1176.68 734.322 1221 788.998 1221H998C1052.68 1221 1097 1176.68 1097 1122V912.998C1097 858.322 1052.68 813.998 998 813.998H689.998Z" stroke="#E50013" stroke-width="1.49333" stroke-miterlimit="10"/>
<path d="M283 407V99C283 44.3238 238.676 0 184 0H-25C-79.6762 0 -124 44.3239 -124 99V308C-124 362.676 -79.6761 407 -25 407H283ZM283 407H689.998M283 407V813.998M689.998 407V813.998M689.998 407H998C1052.68 407 1097 362.676 1097 308V99C1097 44.3239 1052.68 0 998 0H788.998C734.322 0 689.998 44.3238 689.998 99V407ZM283 813.998H-25C-79.6761 813.998 -124 858.322 -124 912.998V1122C-124 1176.68 -79.6762 1221 -25 1221H184C238.676 1221 283 1176.68 283 1122V813.998ZM283 813.998H689.998M689.998 813.998V1122C689.998 1176.68 734.322 1221 788.998 1221H998C1052.68 1221 1097 1176.68 1097 1122V912.998C1097 858.322 1052.68 813.998 998 813.998H689.998Z" stroke="url(#paint0_linear_2_258)" stroke-width="1.49333" stroke-miterlimit="10"/>
<defs>
<linearGradient id="paint0_linear_2_258" x1="486.5" y1="0" x2="486.5" y2="1221" gradientUnits="userSpaceOnUse">
<stop offset="0.0125331" stop-color="white" stop-opacity="0"/>
<stop offset="1" stop-color="white"/>
</linearGradient>
</defs>
</svg>
