<svg width="645" height="1099" viewBox="0 0 645 1099" fill="none" xmlns="http://www.w3.org/2000/svg">
<g opacity="0.25" clip-path="url(#clip0_2_76)">
<path d="M814 285L1122 285C1176.68 285 1221 240.676 1221 186L1221 -23C1221 -77.6762 1176.68 -122 1122 -122L913 -122C858.324 -122 814 -77.6762 814 -23L814 285ZM814 285L814 691.998M814 285L407.002 285M814 691.998L407.002 691.998M814 691.998L814 1000C814 1054.68 858.324 1099 913 1099L1122 1099C1176.68 1099 1221 1054.68 1221 1000L1221 790.998C1221 736.322 1176.68 691.998 1122 691.998L814 691.998ZM407.002 285L407.002 -23C407.002 -77.6762 362.678 -122 308.002 -122L99 -122C44.3238 -122 -5.75215e-06 -77.6762 -8.14212e-06 -23.0001L-1.72778e-05 186C-1.96678e-05 240.676 44.3238 285 99 285L407.002 285ZM407.002 285L407.002 691.998M407.002 691.998L99 691.998C44.3238 691.998 -4.13331e-05 736.322 -4.37231e-05 790.998L-5.28589e-05 1000C-5.52488e-05 1054.68 44.3237 1099 98.9999 1099L308.002 1099C362.678 1099 407.002 1054.68 407.002 1000L407.002 691.998Z" stroke="#E50013" stroke-width="1.49333" stroke-miterlimit="10"/>
<path d="M814 285L1122 285C1176.68 285 1221 240.676 1221 186L1221 -23C1221 -77.6762 1176.68 -122 1122 -122L913 -122C858.324 -122 814 -77.6762 814 -23L814 285ZM814 285L814 691.998M814 285L407.002 285M814 691.998L407.002 691.998M814 691.998L814 1000C814 1054.68 858.324 1099 913 1099L1122 1099C1176.68 1099 1221 1054.68 1221 1000L1221 790.998C1221 736.322 1176.68 691.998 1122 691.998L814 691.998ZM407.002 285L407.002 -23C407.002 -77.6762 362.678 -122 308.002 -122L99 -122C44.3238 -122 -5.75215e-06 -77.6762 -8.14212e-06 -23.0001L-1.72778e-05 186C-1.96678e-05 240.676 44.3238 285 99 285L407.002 285ZM407.002 285L407.002 691.998M407.002 691.998L99 691.998C44.3238 691.998 -4.13331e-05 736.322 -4.37231e-05 790.998L-5.28589e-05 1000C-5.52488e-05 1054.68 44.3237 1099 98.9999 1099L308.002 1099C362.678 1099 407.002 1054.68 407.002 1000L407.002 691.998Z" stroke="url(#paint0_linear_2_76)" stroke-width="1.49333" stroke-miterlimit="10"/>
</g>
<defs>
<linearGradient id="paint0_linear_2_76" x1="1221" y1="488.5" x2="-2.66858e-05" y2="488.5" gradientUnits="userSpaceOnUse">
<stop offset="0.0125331" stop-color="white" stop-opacity="0"/>
<stop offset="1" stop-color="white"/>
</linearGradient>
<clipPath id="clip0_2_76">
<rect width="1221" height="1221" fill="white" transform="translate(1221 -122) rotate(90)"/>
</clipPath>
</defs>
</svg>
