<svg width="423" height="164" viewBox="0 0 423 164" fill="none" xmlns="http://www.w3.org/2000/svg">
<path d="M545.253 273C545.253 423.36 423.36 545.253 273 545.253C122.639 545.253 0.746667 423.36 0.746667 273C0.746667 122.639 122.639 0.746667 273 0.746667C423.36 0.746667 545.253 122.639 545.253 273ZM273 513.987C406.093 513.987 513.987 406.093 513.987 273C513.987 139.907 406.093 32.0133 273 32.0133C139.907 32.0133 32.0133 139.907 32.0133 273C32.0133 406.093 139.907 513.987 273 513.987ZM479.733 273C479.733 387.177 387.177 479.733 273 479.733C158.824 479.733 66.2667 387.177 66.2667 273C66.2667 158.824 158.824 66.2667 273 66.2667C387.177 66.2667 479.733 158.824 479.733 273ZM273 448.467C369.907 448.467 448.467 369.907 448.467 273C448.467 176.093 369.907 97.5333 273 97.5333C176.093 97.5333 97.5333 176.093 97.5333 273C97.5333 369.907 176.093 448.467 273 448.467ZM414.213 273C414.213 350.99 350.99 414.213 273 414.213C195.01 414.213 131.787 350.99 131.787 273C131.787 195.01 195.01 131.787 273 131.787C350.99 131.787 414.213 195.01 414.213 273ZM273 382.947C333.721 382.947 382.947 333.721 382.947 273C382.947 212.278 333.721 163.053 273 163.053C212.278 163.053 163.053 212.278 163.053 273C163.053 333.721 212.278 382.947 273 382.947Z" stroke="#E50013" stroke-width="1.49333" stroke-miterlimit="10"/>
<path d="M545.253 273C545.253 423.36 423.36 545.253 273 545.253C122.639 545.253 0.746667 423.36 0.746667 273C0.746667 122.639 122.639 0.746667 273 0.746667C423.36 0.746667 545.253 122.639 545.253 273ZM273 513.987C406.093 513.987 513.987 406.093 513.987 273C513.987 139.907 406.093 32.0133 273 32.0133C139.907 32.0133 32.0133 139.907 32.0133 273C32.0133 406.093 139.907 513.987 273 513.987ZM479.733 273C479.733 387.177 387.177 479.733 273 479.733C158.824 479.733 66.2667 387.177 66.2667 273C66.2667 158.824 158.824 66.2667 273 66.2667C387.177 66.2667 479.733 158.824 479.733 273ZM273 448.467C369.907 448.467 448.467 369.907 448.467 273C448.467 176.093 369.907 97.5333 273 97.5333C176.093 97.5333 97.5333 176.093 97.5333 273C97.5333 369.907 176.093 448.467 273 448.467ZM414.213 273C414.213 350.99 350.99 414.213 273 414.213C195.01 414.213 131.787 350.99 131.787 273C131.787 195.01 195.01 131.787 273 131.787C350.99 131.787 414.213 195.01 414.213 273ZM273 382.947C333.721 382.947 382.947 333.721 382.947 273C382.947 212.278 333.721 163.053 273 163.053C212.278 163.053 163.053 212.278 163.053 273C163.053 333.721 212.278 382.947 273 382.947Z" stroke="url(#paint0_linear_2_223)" stroke-width="1.49333" stroke-miterlimit="10"/>
<defs>
<linearGradient id="paint0_linear_2_223" x1="273" y1="0" x2="273" y2="546" gradientUnits="userSpaceOnUse">
<stop offset="0.0125331" stop-color="white" stop-opacity="0"/>
<stop offset="1" stop-color="white"/>
</linearGradient>
</defs>
</svg>
