<svg width="660" height="1372" viewBox="0 0 660 1372" fill="none" xmlns="http://www.w3.org/2000/svg">
<path fill-rule="evenodd" clip-rule="evenodd" d="M-398.286 1190.21C-401.868 1180.88 -410.399 1174.29 -420.328 1173.18C-506.361 1163.54 -586.793 1114.42 -633.125 1033.55C-679.457 952.678 -681.154 858.448 -645.953 779.357C-641.891 770.229 -643.262 759.536 -649.497 751.729C-703.518 684.082 -725.658 592.473 -701.235 502.526C-676.812 412.582 -611.38 344.75 -530.562 313.712C-521.235 310.13 -514.644 301.599 -513.532 291.671C-503.898 205.639 -454.776 125.208 -373.904 78.8726C-293.033 32.5439 -198.802 30.8475 -119.71 66.0456C-110.582 70.1076 -99.8904 68.736 -92.0835 62.5017C-24.436 8.48008 67.1728 -13.6576 157.12 10.7654C247.064 35.1878 314.897 100.619 345.935 181.436C349.517 190.763 358.047 197.353 367.975 198.465C454.006 208.103 534.437 257.225 580.774 338.094C627.102 418.968 628.798 513.198 593.601 592.288C589.539 601.416 590.91 612.108 597.144 619.914C651.165 687.565 673.303 779.175 648.88 869.119C624.457 959.066 559.027 1026.9 478.21 1057.93C468.884 1061.51 462.293 1070.04 461.181 1079.97C451.543 1166.01 402.421 1246.44 321.552 1292.77C240.678 1339.1 146.448 1340.8 67.3586 1305.6C58.2309 1301.54 47.5387 1302.91 39.7315 1309.14C-27.9191 1363.16 -119.53 1385.3 -209.474 1360.88C-299.42 1336.46 -367.251 1271.03 -398.286 1190.21ZM113.859 930.745C248.528 853.587 295.156 681.861 218.006 547.187C140.849 412.512 -30.878 365.883 -165.554 443.04C-300.229 520.198 -346.857 691.923 -269.7 826.598C-192.543 961.273 -20.8162 1007.9 113.859 930.745Z" stroke="#E50013" stroke-width="1.49333" stroke-miterlimit="10"/>
<path fill-rule="evenodd" clip-rule="evenodd" d="M-398.286 1190.21C-401.868 1180.88 -410.399 1174.29 -420.328 1173.18C-506.361 1163.54 -586.793 1114.42 -633.125 1033.55C-679.457 952.678 -681.154 858.448 -645.953 779.357C-641.891 770.229 -643.262 759.536 -649.497 751.729C-703.518 684.082 -725.658 592.473 -701.235 502.526C-676.812 412.582 -611.38 344.75 -530.562 313.712C-521.235 310.13 -514.644 301.599 -513.532 291.671C-503.898 205.639 -454.776 125.208 -373.904 78.8726C-293.033 32.5439 -198.802 30.8475 -119.71 66.0456C-110.582 70.1076 -99.8904 68.736 -92.0835 62.5017C-24.436 8.48008 67.1728 -13.6576 157.12 10.7654C247.064 35.1878 314.897 100.619 345.935 181.436C349.517 190.763 358.047 197.353 367.975 198.465C454.006 208.103 534.437 257.225 580.774 338.094C627.102 418.968 628.798 513.198 593.601 592.288C589.539 601.416 590.91 612.108 597.144 619.914C651.165 687.565 673.303 779.175 648.88 869.119C624.457 959.066 559.027 1026.9 478.21 1057.93C468.884 1061.51 462.293 1070.04 461.181 1079.97C451.543 1166.01 402.421 1246.44 321.552 1292.77C240.678 1339.1 146.448 1340.8 67.3586 1305.6C58.2309 1301.54 47.5387 1302.91 39.7315 1309.14C-27.9191 1363.16 -119.53 1385.3 -209.474 1360.88C-299.42 1336.46 -367.251 1271.03 -398.286 1190.21ZM113.859 930.745C248.528 853.587 295.156 681.861 218.006 547.187C140.849 412.512 -30.878 365.883 -165.554 443.04C-300.229 520.198 -346.857 691.923 -269.7 826.598C-192.543 961.273 -20.8162 1007.9 113.859 930.745Z" stroke="url(#paint0_linear_2_417)" stroke-width="1.49333" stroke-miterlimit="10"/>
<defs>
<linearGradient id="paint0_linear_2_417" x1="-701.235" y1="502.526" x2="247.5" y2="1044.5" gradientUnits="userSpaceOnUse">
<stop offset="0.0125331" stop-color="white" stop-opacity="0"/>
<stop offset="1" stop-color="white"/>
</linearGradient>
</defs>
</svg>
