<svg width="28" height="28" viewBox="0 0 28 28" fill="none" xmlns="http://www.w3.org/2000/svg">
<path d="M14.0001 9.13332C13.2382 8.74272 12.3731 8.60082 11.5264 8.72758C10.6797 8.85435 9.89409 9.2434 9.28007 9.83999C8.531 10.59 8.11025 11.6067 8.11025 12.6667C8.11025 13.7267 8.531 14.7433 9.28007 15.4933L13.0534 19.3333C13.1773 19.4583 13.3248 19.5575 13.4873 19.6252C13.6498 19.6929 13.824 19.7277 14.0001 19.7277C14.1761 19.7277 14.3504 19.6929 14.5128 19.6252C14.6753 19.5575 14.8228 19.4583 14.9467 19.3333L18.7201 15.56C19.4691 14.81 19.8899 13.7933 19.8899 12.7333C19.8899 11.6733 19.4691 10.6567 18.7201 9.90666C18.1137 9.29918 17.3318 8.89767 16.4848 8.75889C15.6378 8.62012 14.7686 8.7511 14.0001 9.13332ZM16.8267 13.6133L14.0001 16.44L11.1734 13.6133C11.0484 13.4894 10.9492 13.3419 10.8815 13.1794C10.8139 13.0169 10.779 12.8427 10.779 12.6667C10.779 12.4906 10.8139 12.3164 10.8815 12.1539C10.9492 11.9914 11.0484 11.8439 11.1734 11.72C11.4232 11.4717 11.7612 11.3323 12.1134 11.3323C12.4656 11.3323 12.8036 11.4717 13.0534 11.72C13.1773 11.845 13.3248 11.9442 13.4873 12.0118C13.6498 12.0795 13.824 12.1144 14.0001 12.1144C14.1761 12.1144 14.3504 12.0795 14.5128 12.0118C14.6753 11.9442 14.8228 11.845 14.9467 11.72C15.1965 11.4717 15.5345 11.3323 15.8867 11.3323C16.239 11.3323 16.5769 11.4717 16.8267 11.72C16.9517 11.8439 17.0509 11.9914 17.1186 12.1539C17.1863 12.3164 17.2211 12.4906 17.2211 12.6667C17.2211 12.8427 17.1863 13.0169 17.1186 13.1794C17.0509 13.3419 16.9517 13.4894 16.8267 13.6133V13.6133ZM14.0001 0.666656C12.2491 0.666656 10.5153 1.01153 8.89762 1.6816C7.27994 2.35166 5.81009 3.33379 4.57197 4.5719C2.07149 7.07238 0.666732 10.4638 0.666732 14C0.655076 17.0788 1.72112 20.0647 3.68007 22.44L1.0134 25.1067C0.828389 25.2942 0.70306 25.5323 0.653228 25.7909C0.603396 26.0496 0.631293 26.3172 0.733399 26.56C0.844143 26.7999 1.02367 27.0015 1.24919 27.1392C1.47472 27.2769 1.73607 27.3444 2.00007 27.3333H14.0001C17.5363 27.3333 20.9277 25.9286 23.4282 23.4281C25.9286 20.9276 27.3334 17.5362 27.3334 14C27.3334 10.4638 25.9286 7.07238 23.4282 4.5719C20.9277 2.07141 17.5363 0.666656 14.0001 0.666656V0.666656ZM14.0001 24.6667H5.2134L6.4534 23.4267C6.70173 23.1768 6.84112 22.8389 6.84112 22.4867C6.84112 22.1344 6.70173 21.7965 6.4534 21.5467C4.70751 19.8027 3.6203 17.5074 3.37699 15.0517C3.13368 12.5961 3.74932 10.132 5.11903 8.07935C6.48875 6.02671 8.52779 4.51247 10.8888 3.79462C13.2497 3.07677 15.7865 3.19973 18.067 4.14254C20.3475 5.08535 22.2305 6.78969 23.3953 8.96518C24.5601 11.1407 24.9346 13.6527 24.4549 16.0733C23.9752 18.494 22.6711 20.6734 20.7648 22.2403C18.8584 23.8072 16.4677 24.6647 14.0001 24.6667V24.6667Z" fill="#E50013"/>
</svg>
