<svg width="25" height="28" viewBox="0 0 25 28" fill="none" xmlns="http://www.w3.org/2000/svg">
<path d="M20.5 0.666656H4.5C3.43913 0.666656 2.42172 1.08808 1.67157 1.83823C0.921428 2.58838 0.5 3.60579 0.5 4.66666V19.3333C0.5 20.3942 0.921428 21.4116 1.67157 22.1618C2.42172 22.9119 3.43913 23.3333 4.5 23.3333H7.95333L11.5533 26.9467C11.6779 27.0702 11.8257 27.168 11.9881 27.2344C12.1506 27.3007 12.3245 27.3343 12.5 27.3333C12.8178 27.3333 13.1251 27.2199 13.3667 27.0133L17.66 23.3333H20.5C21.5609 23.3333 22.5783 22.9119 23.3284 22.1618C24.0786 21.4116 24.5 20.3942 24.5 19.3333V4.66666C24.5 3.60579 24.0786 2.58838 23.3284 1.83823C22.5783 1.08808 21.5609 0.666656 20.5 0.666656ZM21.8333 19.3333C21.8333 19.6869 21.6929 20.0261 21.4428 20.2761C21.1928 20.5262 20.8536 20.6667 20.5 20.6667H17.1667C16.8489 20.6666 16.5415 20.7801 16.3 20.9867L12.5667 24.1867L9.44667 21.0533C9.32208 20.9297 9.17433 20.832 9.01188 20.7656C8.84943 20.6993 8.67548 20.6656 8.5 20.6667H4.5C4.14638 20.6667 3.80724 20.5262 3.55719 20.2761C3.30714 20.0261 3.16667 19.6869 3.16667 19.3333V4.66666C3.16667 4.31303 3.30714 3.9739 3.55719 3.72385C3.80724 3.4738 4.14638 3.33332 4.5 3.33332H20.5C20.8536 3.33332 21.1928 3.4738 21.4428 3.72385C21.6929 3.9739 21.8333 4.31303 21.8333 4.66666V19.3333Z" fill="#E50013"/>
</svg>
