<svg width="28" height="28" viewBox="0 0 28 28" fill="none" xmlns="http://www.w3.org/2000/svg">
<path d="M26.5466 9.52C26.5466 9.52 26.5466 9.52 26.5466 9.45334C25.6071 6.8883 23.9025 4.67372 21.6633 3.10916C19.424 1.5446 16.7583 0.705566 14.0266 0.705566C11.2949 0.705566 8.62918 1.5446 6.38995 3.10916C4.15072 4.67372 2.44607 6.8883 1.5066 9.45334C1.5066 9.45334 1.5066 9.45334 1.5066 9.52C0.457435 12.4145 0.457435 15.5855 1.5066 18.48C1.5066 18.48 1.5066 18.48 1.5066 18.5467C2.44607 21.1117 4.15072 23.3263 6.38995 24.8909C8.62918 26.4554 11.2949 27.2944 14.0266 27.2944C16.7583 27.2944 19.424 26.4554 21.6633 24.8909C23.9025 23.3263 25.6071 21.1117 26.5466 18.5467C26.5466 18.5467 26.5466 18.5467 26.5466 18.48C27.5958 15.5855 27.5958 12.4145 26.5466 9.52V9.52ZM3.67994 16.6667C3.21757 14.919 3.21757 13.0811 3.67994 11.3333H6.15993C5.94664 13.1047 5.94664 14.8953 6.15993 16.6667H3.67994ZM4.77327 19.3333H6.63993C6.95289 20.5225 7.40022 21.6721 7.97327 22.76C6.66567 21.8692 5.5726 20.6987 4.77327 19.3333ZM6.63993 8.66667H4.77327C5.56109 7.30545 6.64019 6.13529 7.93327 5.24C7.37401 6.32966 6.94012 7.47923 6.63993 8.66667V8.66667ZM12.6666 24.2667C11.029 23.0649 9.8788 21.3136 9.4266 19.3333H12.6666V24.2667ZM12.6666 16.6667H8.85327C8.60445 14.8976 8.60445 13.1024 8.85327 11.3333H12.6666V16.6667ZM12.6666 8.66667H9.4266C9.8788 6.68636 11.029 4.9351 12.6666 3.73334V8.66667ZM23.2266 8.66667H21.3599C21.047 7.47755 20.5997 6.32792 20.0266 5.24C21.3342 6.13076 22.4273 7.30126 23.2266 8.66667ZM15.3333 3.73334C16.9709 4.9351 18.1211 6.68636 18.5733 8.66667H15.3333V3.73334ZM15.3333 24.2667V19.3333H18.5733C18.1211 21.3136 16.9709 23.0649 15.3333 24.2667V24.2667ZM19.1466 16.6667H15.3333V11.3333H19.1466C19.3954 13.1024 19.3954 14.8976 19.1466 16.6667ZM20.0666 22.76C20.6396 21.6721 21.087 20.5225 21.3999 19.3333H23.2666C22.4673 20.6987 21.3742 21.8692 20.0666 22.76ZM24.3199 16.6667H21.8399C21.9484 15.7819 22.0018 14.8913 21.9999 14C22.0014 13.1087 21.948 12.2181 21.8399 11.3333H24.3199C24.7823 13.0811 24.7823 14.919 24.3199 16.6667Z" fill="#E50013"/>
</svg>
