<svg width="28" height="28" viewBox="0 0 28 28" fill="none" xmlns="http://www.w3.org/2000/svg">
<path d="M14.0001 0.666748C11.363 0.666748 8.78514 1.44873 6.59248 2.91382C4.39983 4.37891 2.69086 6.46129 1.68169 8.89764C0.672525 11.334 0.408481 14.0149 0.92295 16.6013C1.43742 19.1877 2.7073 21.5635 4.572 23.4282C6.4367 25.2929 8.81247 26.5628 11.3989 27.0772C13.9853 27.5917 16.6662 27.3276 19.1025 26.3185C21.5389 25.3093 23.6213 23.6003 25.0863 21.4077C26.5514 19.215 27.3334 16.6372 27.3334 14.0001C27.3334 12.2491 26.9885 10.5153 26.3185 8.89764C25.6484 7.27996 24.6663 5.81011 23.4282 4.57199C22.1901 3.33388 20.7202 2.35175 19.1025 1.68169C17.4849 1.01162 15.751 0.666748 14.0001 0.666748V0.666748ZM14.0001 24.6667C11.8904 24.6667 9.82813 24.0412 8.074 22.8691C6.31988 21.697 4.95271 20.0311 4.14537 18.082C3.33804 16.133 3.1268 13.9882 3.53838 11.9191C3.94995 9.84999 4.96585 7.94937 6.45762 6.45761C7.94938 4.96585 9.84999 3.94995 11.9191 3.53837C13.9883 3.1268 16.133 3.33803 18.082 4.14537C20.0311 4.9527 21.697 6.31987 22.8691 8.074C24.0412 9.82812 24.6668 11.8904 24.6668 14.0001C24.6668 16.8291 23.5429 19.5422 21.5426 21.5426C19.5422 23.5429 16.8291 24.6667 14.0001 24.6667V24.6667ZM19.3334 12.6667H15.3334V8.66675C15.3334 8.31313 15.1929 7.97399 14.9429 7.72394C14.6928 7.47389 14.3537 7.33341 14.0001 7.33341C13.6465 7.33341 13.3073 7.47389 13.0573 7.72394C12.8072 7.97399 12.6668 8.31313 12.6668 8.66675V12.6667H8.66675C8.31313 12.6667 7.97399 12.8072 7.72395 13.0573C7.4739 13.3073 7.33342 13.6465 7.33342 14.0001C7.33342 14.3537 7.4739 14.6928 7.72395 14.9429C7.97399 15.1929 8.31313 15.3334 8.66675 15.3334H12.6668V19.3334C12.6668 19.687 12.8072 20.0262 13.0573 20.2762C13.3073 20.5263 13.6465 20.6667 14.0001 20.6667C14.3537 20.6667 14.6928 20.5263 14.9429 20.2762C15.1929 20.0262 15.3334 19.687 15.3334 19.3334V15.3334H19.3334C19.687 15.3334 20.0262 15.1929 20.2762 14.9429C20.5263 14.6928 20.6668 14.3537 20.6668 14.0001C20.6668 13.6465 20.5263 13.3073 20.2762 13.0573C20.0262 12.8072 19.687 12.6667 19.3334 12.6667Z" fill="black"/>
</svg>
