<svg width="173" height="173" viewBox="0 0 173 173" fill="none" xmlns="http://www.w3.org/2000/svg">
<path fill-rule="evenodd" clip-rule="evenodd" d="M26.0424 26.0424C17.4723 34.6124 14.3772 46.5843 16.7571 57.6115C7.27683 63.7261 1 74.38 1 86.5C0.999999 98.6196 7.27683 109.274 16.7571 115.389C14.3772 126.416 17.4723 138.387 26.0424 146.958C34.6125 155.528 46.5843 158.623 57.6115 156.243C63.7261 165.723 74.38 172 86.5 172C98.6196 172 109.274 165.723 115.389 156.243C126.416 158.623 138.387 155.528 146.958 146.958C155.528 138.387 158.623 126.416 156.243 115.389C165.723 109.274 172 98.6196 172 86.5C172 74.38 165.723 63.7261 156.243 57.6115C158.623 46.5843 155.528 34.6125 146.958 26.0424C138.387 17.4723 126.416 14.3772 115.389 16.7571C109.274 7.27684 98.6196 1 86.5 1C74.38 1 63.7261 7.27682 57.6115 16.7571C46.5843 14.3772 34.6125 17.4723 26.0424 26.0424Z" fill="#E50013" stroke="#E50013" stroke-width="1.49333" stroke-miterlimit="10"/>
</svg>
