<svg width="398" height="201" viewBox="0 0 398 201" fill="none" xmlns="http://www.w3.org/2000/svg">
<path fill-rule="evenodd" clip-rule="evenodd" d="M96.7454 312.444C64.7923 257.1 69.7976 190.617 104.133 141.831C114.43 127.2 117.704 107.856 108.759 92.3621V92.3621C96.8162 71.6767 68.9209 66.5594 53.7589 85.0155C-5.89358 157.628 -17.4742 262.85 32.5555 349.504C82.5845 436.157 179.5 478.739 272.211 463.385C295.775 459.482 305.291 432.766 293.348 412.08V412.08C284.403 396.586 266.013 389.75 248.194 391.352C188.776 396.694 128.697 367.787 96.7454 312.444ZM433.742 117.879C483.771 204.532 472.191 309.754 412.538 382.367C397.376 400.823 369.481 395.706 357.538 375.02V375.02C348.593 359.526 351.867 340.182 362.164 325.551C396.5 276.764 401.504 210.282 369.552 154.939C337.599 99.5948 277.521 70.6881 218.103 76.0303C200.284 77.6324 181.894 70.7961 172.949 55.3021V55.3021C161.006 34.6166 170.522 7.89995 194.087 3.99731C286.798 -11.357 383.713 31.2251 433.742 117.879Z" stroke="#E50013" stroke-width="1.49333" stroke-miterlimit="10"/>
<path fill-rule="evenodd" clip-rule="evenodd" d="M96.7454 312.444C64.7923 257.1 69.7976 190.617 104.133 141.831C114.43 127.2 117.704 107.856 108.759 92.3621V92.3621C96.8162 71.6767 68.9209 66.5594 53.7589 85.0155C-5.89358 157.628 -17.4742 262.85 32.5555 349.504C82.5845 436.157 179.5 478.739 272.211 463.385C295.775 459.482 305.291 432.766 293.348 412.08V412.08C284.403 396.586 266.013 389.75 248.194 391.352C188.776 396.694 128.697 367.787 96.7454 312.444ZM433.742 117.879C483.771 204.532 472.191 309.754 412.538 382.367C397.376 400.823 369.481 395.706 357.538 375.02V375.02C348.593 359.526 351.867 340.182 362.164 325.551C396.5 276.764 401.504 210.282 369.552 154.939C337.599 99.5948 277.521 70.6881 218.103 76.0303C200.284 77.6324 181.894 70.7961 172.949 55.3021V55.3021C161.006 34.6166 170.522 7.89995 194.087 3.99731C286.798 -11.357 383.713 31.2251 433.742 117.879Z" stroke="url(#paint0_linear_2_184)" stroke-width="1.49333" stroke-miterlimit="10"/>
<defs>
<linearGradient id="paint0_linear_2_184" x1="118.078" y1="34.3827" x2="348.219" y2="432.999" gradientUnits="userSpaceOnUse">
<stop offset="0.0125331" stop-color="white" stop-opacity="0"/>
<stop offset="1" stop-color="white"/>
</linearGradient>
</defs>
</svg>
