<svg width="115" height="115" viewBox="0 0 115 115" fill="none" xmlns="http://www.w3.org/2000/svg">
<mask id="mask0_2_228" style="mask-type:luminance" maskUnits="userSpaceOnUse" x="0" y="0" width="115" height="115">
<path d="M115 0H0V115H115V0Z" fill="white"/>
</mask>
<g mask="url(#mask0_2_228)">
<path d="M25.0676 4.73831C27.6234 2.1825 31.0899 0.746667 34.7043 0.746667H95C105.633 0.746667 114.253 9.36668 114.253 20V28.75V80.2957C114.253 83.9101 112.817 87.3766 110.262 89.9324C101.676 98.5177 86.9967 92.4372 86.9967 80.2957V48.75C86.9967 37.2919 77.7081 28.0033 66.25 28.0033H34.7043C22.5628 28.0033 16.4823 13.3237 25.0676 4.73831ZM18.1788 75.6788C11.7459 82.1117 0.746667 77.5556 0.746667 68.4582C0.746667 62.8185 5.31851 58.2467 10.9582 58.2467C20.0556 58.2467 24.6117 69.2459 18.1788 75.6788ZM56.7533 104.184C56.7533 109.745 52.2452 114.253 46.6841 114.253C37.7134 114.253 33.2208 103.407 39.5641 97.0641C45.9074 90.7209 56.7533 95.2134 56.7533 104.184Z" stroke="#E50013" stroke-width="1.49333" stroke-miterlimit="10"/>
</g>
</svg>
