<svg width="28" height="28" viewBox="0 0 28 28" fill="none" xmlns="http://www.w3.org/2000/svg">
<path d="M16.6667 12.6667H15.3333V11.3333C15.3333 10.9797 15.1929 10.6406 14.9428 10.3905C14.6928 10.1405 14.3536 10 14 10C13.6464 10 13.3072 10.1405 13.0572 10.3905C12.8071 10.6406 12.6667 10.9797 12.6667 11.3333V12.6667H11.3333C10.9797 12.6667 10.6406 12.8071 10.3905 13.0572C10.1405 13.3072 10 13.6464 10 14C10 14.3536 10.1405 14.6928 10.3905 14.9428C10.6406 15.1929 10.9797 15.3333 11.3333 15.3333H12.6667V16.6667C12.6667 17.0203 12.8071 17.3594 13.0572 17.6095C13.3072 17.8595 13.6464 18 14 18C14.3536 18 14.6928 17.8595 14.9428 17.6095C15.1929 17.3594 15.3333 17.0203 15.3333 16.6667V15.3333H16.6667C17.0203 15.3333 17.3594 15.1929 17.6095 14.9428C17.8595 14.6928 18 14.3536 18 14C18 13.6464 17.8595 13.3072 17.6095 13.0572C17.3594 12.8071 17.0203 12.6667 16.6667 12.6667ZM26.9467 13.0533L23.8133 10V5.52C23.8133 5.16638 23.6729 4.82724 23.4228 4.57719C23.1728 4.32714 22.8336 4.18667 22.48 4.18667H18.0667L14.9467 1.05333C14.8227 0.928362 14.6752 0.82917 14.5128 0.761478C14.3503 0.693787 14.176 0.658936 14 0.658936C13.824 0.658936 13.6497 0.693787 13.4872 0.761478C13.3248 0.82917 13.1773 0.928362 13.0533 1.05333L10 4.18667H5.52C5.16638 4.18667 4.82724 4.32714 4.57719 4.57719C4.32714 4.82724 4.18667 5.16638 4.18667 5.52V10L1.05333 13.0533C0.928362 13.1773 0.82917 13.3248 0.761478 13.4872C0.693787 13.6497 0.658936 13.824 0.658936 14C0.658936 14.176 0.693787 14.3503 0.761478 14.5128C0.82917 14.6752 0.928362 14.8227 1.05333 14.9467L4.18667 18.0667V22.48C4.18667 22.8336 4.32714 23.1728 4.57719 23.4228C4.82724 23.6729 5.16638 23.8133 5.52 23.8133H10L13.12 26.9467C13.244 27.0716 13.3914 27.1708 13.5539 27.2385C13.7164 27.3062 13.8907 27.3411 14.0667 27.3411C14.2427 27.3411 14.417 27.3062 14.5794 27.2385C14.7419 27.1708 14.8894 27.0716 15.0133 26.9467L18.1333 23.8133H22.5467C22.9003 23.8133 23.2394 23.6729 23.4895 23.4228C23.7395 23.1728 23.88 22.8336 23.88 22.48V18.0667L27.0133 14.9467C27.134 14.8184 27.2281 14.6674 27.2902 14.5026C27.3522 14.3377 27.3809 14.1621 27.3747 13.9861C27.3685 13.8101 27.3275 13.637 27.254 13.4769C27.1806 13.3168 27.0761 13.1728 26.9467 13.0533ZM21.5467 16.5733C21.4207 16.6968 21.3205 16.8441 21.2518 17.0066C21.1831 17.1691 21.1474 17.3436 21.1467 17.52V21.1467H17.52C17.3436 21.1474 17.1691 21.1831 17.0066 21.2518C16.8441 21.3205 16.6968 21.4207 16.5733 21.5467L14 24.12L11.4267 21.5467C11.3032 21.4207 11.1559 21.3205 10.9934 21.2518C10.8309 21.1831 10.6564 21.1474 10.48 21.1467H6.85333V17.52C6.8526 17.3436 6.81687 17.1691 6.74821 17.0066C6.67954 16.8441 6.57932 16.6968 6.45333 16.5733L3.88 14L6.45333 11.4267C6.57932 11.3032 6.67954 11.1559 6.74821 10.9934C6.81687 10.8309 6.8526 10.6564 6.85333 10.48V6.85333H10.48C10.6564 6.8526 10.8309 6.81687 10.9934 6.74821C11.1559 6.67954 11.3032 6.57932 11.4267 6.45333L14 3.88L16.5733 6.45333C16.6968 6.57932 16.8441 6.67954 17.0066 6.74821C17.1691 6.81687 17.3436 6.8526 17.52 6.85333H21.1467V10.48C21.1474 10.6564 21.1831 10.8309 21.2518 10.9934C21.3205 11.1559 21.4207 11.3032 21.5467 11.4267L24.12 14L21.5467 16.5733Z" fill="#E50013"/>
</svg>
