<svg width="22" height="28" viewBox="0 0 22 28" fill="none" xmlns="http://www.w3.org/2000/svg">
<path d="M21.1735 2.86675C21.0186 2.74145 20.8376 2.65245 20.6438 2.6063C20.4499 2.56016 20.2483 2.55803 20.0535 2.60009C18.6288 2.89868 17.158 2.90248 15.7317 2.61126C14.3054 2.32005 12.9538 1.73997 11.7602 0.906753C11.537 0.751916 11.2718 0.668945 11.0002 0.668945C10.7285 0.668945 10.4634 0.751916 10.2402 0.906753C9.04651 1.73997 7.69494 2.32005 6.26866 2.61126C4.84238 2.90248 3.37159 2.89868 1.94684 2.60009C1.75209 2.55803 1.55039 2.56016 1.35657 2.6063C1.16275 2.65245 0.981738 2.74145 0.826837 2.86675C0.672143 2.99224 0.547532 3.1508 0.46216 3.33077C0.376789 3.51075 0.332827 3.70756 0.333504 3.90675V13.8401C0.332318 15.7518 0.787868 17.636 1.66222 19.336C2.53657 21.036 3.80441 22.5025 5.36017 23.6134L10.2268 27.0801C10.4527 27.2409 10.723 27.3273 11.0002 27.3273C11.2774 27.3273 11.5477 27.2409 11.7735 27.0801L16.6402 23.6134C18.1959 22.5025 19.4638 21.036 20.3381 19.336C21.2125 17.636 21.668 15.7518 21.6668 13.8401V3.90675C21.6675 3.70756 21.6236 3.51075 21.5382 3.33077C21.4528 3.1508 21.3282 2.99224 21.1735 2.86675ZM19.0002 13.8401C19.0012 15.3264 18.6472 16.7915 17.9677 18.1134C17.2882 19.4354 16.3028 20.5759 15.0935 21.4401L11.0002 24.3601L6.90684 21.4401C5.69755 20.5759 4.71215 19.4354 4.03264 18.1134C3.35312 16.7915 2.99915 15.3264 3.00017 13.8401V5.44009C5.79541 5.67933 8.59489 5.03078 11.0002 3.58675C13.4054 5.03078 16.2049 5.67933 19.0002 5.44009V13.8401ZM13.0535 10.7868L9.46684 14.3868L8.28017 13.1868C8.0291 12.9357 7.68857 12.7946 7.3335 12.7946C6.97843 12.7946 6.63791 12.9357 6.38684 13.1868C6.13577 13.4378 5.99472 13.7784 5.99472 14.1334C5.99472 14.4885 6.13577 14.829 6.38684 15.0801L8.52017 17.2134C8.64412 17.3384 8.79159 17.4376 8.95407 17.5053C9.11655 17.573 9.29082 17.6078 9.46684 17.6078C9.64285 17.6078 9.81713 17.573 9.9796 17.5053C10.1421 17.4376 10.2896 17.3384 10.4135 17.2134L15.0002 12.6668C15.2512 12.4157 15.3923 12.0752 15.3923 11.7201C15.3923 11.365 15.2512 11.0245 15.0002 10.7734C14.7491 10.5223 14.4086 10.3813 14.0535 10.3813C13.6984 10.3813 13.3579 10.5223 13.1068 10.7734L13.0535 10.7868Z" fill="#E50013"/>
</svg>
