<svg width="474" height="894" viewBox="0 0 474 894" fill="none" xmlns="http://www.w3.org/2000/svg">
<path d="M759.377 608.207C733.49 634.093 691.514 634.093 665.628 608.207L551.34 493.914C525.449 468.028 525.449 426.056 551.34 400.168L665.628 285.877C691.514 259.989 733.49 259.989 759.377 285.877L873.67 400.167C899.556 426.056 899.556 468.028 873.67 493.914L759.377 608.207ZM228.455 608.207C202.567 634.093 160.594 634.093 134.706 608.207L20.4159 493.914C-5.47194 468.028 -5.47199 426.056 20.4159 400.168L134.706 285.877C160.594 259.989 202.567 259.989 228.455 285.877L342.745 400.167C368.633 426.056 368.633 468.028 342.745 493.914L228.455 608.207ZM493.918 873.666C468.027 899.557 426.056 899.557 400.168 873.666L285.877 759.377C259.989 733.491 259.989 691.515 285.877 665.629L400.168 551.34C426.056 525.449 468.027 525.449 493.918 551.34L608.207 665.629C634.093 691.515 634.093 733.491 608.207 759.377L493.918 873.666ZM493.918 342.745C468.027 368.633 426.056 368.633 400.168 342.745L285.877 228.454C259.989 202.567 259.989 160.594 285.877 134.706L400.168 20.4159C426.056 -5.47194 468.027 -5.47199 493.918 20.4159L608.207 134.706C634.093 160.594 634.093 202.567 608.207 228.454L493.918 342.745Z" fill="white"/>
<path d="M759.377 608.207C733.49 634.093 691.514 634.093 665.628 608.207L551.34 493.914C525.449 468.028 525.449 426.056 551.34 400.168L665.628 285.877C691.514 259.989 733.49 259.989 759.377 285.877L873.67 400.167C899.556 426.056 899.556 468.028 873.67 493.914L759.377 608.207ZM228.455 608.207C202.567 634.093 160.594 634.093 134.706 608.207L20.4159 493.914C-5.47194 468.028 -5.47199 426.056 20.4159 400.168L134.706 285.877C160.594 259.989 202.567 259.989 228.455 285.877L342.745 400.167C368.633 426.056 368.633 468.028 342.745 493.914L228.455 608.207ZM493.918 873.666C468.027 899.557 426.056 899.557 400.168 873.666L285.877 759.377C259.989 733.491 259.989 691.515 285.877 665.629L400.168 551.34C426.056 525.449 468.027 525.449 493.918 551.34L608.207 665.629C634.093 691.515 634.093 733.491 608.207 759.377L493.918 873.666ZM493.918 342.745C468.027 368.633 426.056 368.633 400.168 342.745L285.877 228.454C259.989 202.567 259.989 160.594 285.877 134.706L400.168 20.4159C426.056 -5.47194 468.027 -5.47199 493.918 20.4159L608.207 134.706C634.093 160.594 634.093 202.567 608.207 228.454L493.918 342.745Z" stroke="#E50013" stroke-width="1.49333" stroke-miterlimit="10"/>
<path d="M759.377 608.207C733.49 634.093 691.514 634.093 665.628 608.207L551.34 493.914C525.449 468.028 525.449 426.056 551.34 400.168L665.628 285.877C691.514 259.989 733.49 259.989 759.377 285.877L873.67 400.167C899.556 426.056 899.556 468.028 873.67 493.914L759.377 608.207ZM228.455 608.207C202.567 634.093 160.594 634.093 134.706 608.207L20.4159 493.914C-5.47194 468.028 -5.47199 426.056 20.4159 400.168L134.706 285.877C160.594 259.989 202.567 259.989 228.455 285.877L342.745 400.167C368.633 426.056 368.633 468.028 342.745 493.914L228.455 608.207ZM493.918 873.666C468.027 899.557 426.056 899.557 400.168 873.666L285.877 759.377C259.989 733.491 259.989 691.515 285.877 665.629L400.168 551.34C426.056 525.449 468.027 525.449 493.918 551.34L608.207 665.629C634.093 691.515 634.093 733.491 608.207 759.377L493.918 873.666ZM493.918 342.745C468.027 368.633 426.056 368.633 400.168 342.745L285.877 228.454C259.989 202.567 259.989 160.594 285.877 134.706L400.168 20.4159C426.056 -5.47194 468.027 -5.47199 493.918 20.4159L608.207 134.706C634.093 160.594 634.093 202.567 608.207 228.454L493.918 342.745Z" stroke="url(#paint0_linear_2_415)" stroke-width="1.49333" stroke-miterlimit="10"/>
<defs>
<linearGradient id="paint0_linear_2_415" x1="447.042" y1="1" x2="447.042" y2="893.084" gradientUnits="userSpaceOnUse">
<stop offset="0.0125331" stop-color="white" stop-opacity="0"/>
<stop offset="1" stop-color="white"/>
</linearGradient>
</defs>
</svg>
