<svg width="208" height="175" viewBox="0 0 208 175" fill="none" xmlns="http://www.w3.org/2000/svg">
<path fill-rule="evenodd" clip-rule="evenodd" d="M182.999 158.491C173.764 147.832 172.263 131.187 178.392 118.486C183.582 107.731 186.492 95.6676 186.492 82.925C186.492 37.6791 149.813 1 104.567 1C59.3212 1 22.6421 37.6791 22.6421 82.925C22.6421 95.3799 25.4214 107.186 30.3937 117.756C36.3968 130.517 34.7327 147.147 25.3939 157.715C13.8091 170.825 5.45874 186.86 1.59217 204.571C-1.07012 216.764 9.30175 227 21.7834 227H185.93C198.412 227 208.785 216.766 206.122 204.571C202.331 187.208 194.231 171.455 182.999 158.491Z" stroke="#E50013" stroke-width="1.49333" stroke-miterlimit="10"/>
</svg>
